<svg width="24" height="24" viewBox="0 0 24 24" fill="none" xmlns="http://www.w3.org/2000/svg">
<path d="M21.2354 10L19.2754 9.525C19.2334 9.51466 19.1947 9.49422 19.1624 9.46547C19.1302 9.43671 19.1054 9.4005 19.0904 9.36C19.0254 9.19 18.9554 9.02 18.8804 8.86C18.8607 8.82218 18.8504 8.78015 18.8504 8.7375C18.8504 8.69485 18.8607 8.65282 18.8804 8.615L19.9304 6.89C20.0467 6.699 20.0956 6.47454 20.0693 6.25248C20.043 6.03042 19.943 5.82358 19.7854 5.665L18.3554 4.215C18.1976 4.05139 17.9889 3.9464 17.7635 3.91732C17.5381 3.88823 17.3095 3.93679 17.1154 4.055L15.3904 5.11C15.3521 5.13101 15.3091 5.14202 15.2654 5.14202C15.2217 5.14202 15.1787 5.13101 15.1404 5.11C14.9754 5.035 14.8104 4.97 14.6404 4.905C14.5997 4.89034 14.5632 4.86574 14.5344 4.83343C14.5056 4.80112 14.4853 4.76213 14.4754 4.72L13.9754 2.75C13.9212 2.53995 13.8003 2.3532 13.6307 2.21792C13.4612 2.08263 13.2522 2.00615 13.0354 2H10.9704C10.7464 2.00045 10.529 2.07609 10.3531 2.2148C10.1772 2.35352 10.053 2.54727 10.0004 2.765L9.50039 4.765C9.49061 4.80586 9.47089 4.84368 9.44298 4.87508C9.41506 4.90648 9.37982 4.9305 9.34039 4.945C9.17539 5.01 9.01539 5.075 8.84039 5.15C8.80208 5.17101 8.75909 5.18202 8.71539 5.18202C8.67169 5.18202 8.6287 5.17101 8.59039 5.15L6.88039 4.045C6.68782 3.92872 6.46166 3.88077 6.23847 3.9089C6.01528 3.93702 5.8081 4.03958 5.65039 4.2L4.18539 5.675C4.03363 5.8343 3.93864 6.03919 3.91514 6.25795C3.89164 6.4767 3.94093 6.6971 4.05539 6.885L5.11539 8.62C5.13514 8.65871 5.14544 8.70154 5.14544 8.745C5.14544 8.78846 5.13514 8.83129 5.11539 8.87C5.04039 9.03 4.97039 9.195 4.90539 9.37C4.89046 9.40971 4.86638 9.44534 4.83511 9.47401C4.80384 9.50268 4.76625 9.52357 4.72539 9.535L2.72539 10.01C2.51674 10.0697 2.33317 10.1956 2.20239 10.3688C2.0716 10.542 2.0007 10.753 2.00039 10.97V13.03C1.99399 13.2591 2.06649 13.4835 2.20576 13.6655C2.34502 13.8475 2.54259 13.9762 2.76539 14.03L4.72539 14.5C4.7679 14.5104 4.80732 14.5308 4.84037 14.5595C4.87342 14.5882 4.89914 14.6244 4.91539 14.665C4.97539 14.84 5.04539 15.005 5.12039 15.165C5.14239 15.2021 5.15401 15.2444 5.15401 15.2875C5.15401 15.3306 5.14239 15.3729 5.12039 15.41L4.04539 17.125C3.93288 17.316 3.88705 17.5391 3.9151 17.759C3.94316 17.9789 4.04352 18.1833 4.20039 18.34L5.65039 19.8C5.80931 19.9588 6.0171 20.0595 6.24024 20.0858C6.46339 20.1121 6.68889 20.0625 6.88039 19.945L8.60539 18.895C8.6437 18.874 8.68669 18.863 8.73039 18.863C8.77409 18.863 8.81708 18.874 8.85539 18.895C9.01539 18.97 9.18039 19.035 9.35539 19.1C9.39567 19.1154 9.43167 19.1403 9.46038 19.1724C9.48908 19.2046 9.50966 19.2432 9.52039 19.285L9.99539 21.25C10.0511 21.4658 10.1773 21.6568 10.3539 21.7926C10.5306 21.9285 10.7475 22.0015 10.9704 22H13.0354C13.2587 21.9998 13.4756 21.9249 13.6514 21.7872C13.8272 21.6494 13.9518 21.4568 14.0054 21.24L14.4804 19.27C14.4903 19.2279 14.5106 19.1889 14.5394 19.1566C14.5682 19.1243 14.6047 19.0997 14.6454 19.085C14.8104 19.02 14.9754 18.955 15.1454 18.88C15.1837 18.859 15.2267 18.848 15.2704 18.848C15.3141 18.848 15.3571 18.859 15.3954 18.88L17.1504 19.955C17.3414 20.0675 17.5645 20.1133 17.7844 20.0853C18.0043 20.0572 18.2087 19.9569 18.3654 19.8L19.8254 18.345C19.9842 18.1861 20.0849 17.9783 20.1112 17.7551C20.1375 17.532 20.0879 17.3065 19.9704 17.115L18.9204 15.39C18.8984 15.3529 18.8868 15.3106 18.8868 15.2675C18.8868 15.2244 18.8984 15.1821 18.9204 15.145C18.9954 14.98 19.0654 14.81 19.1304 14.645C19.1451 14.6043 19.1697 14.5678 19.202 14.539C19.2343 14.5102 19.2733 14.4899 19.3154 14.48L21.2354 14C21.4582 13.9462 21.6558 13.8175 21.795 13.6355C21.9343 13.4535 22.0068 13.2291 22.0004 13V10.97C21.9999 10.746 21.9243 10.5286 21.7856 10.3527C21.6469 10.1769 21.4531 10.0526 21.2354 10ZM12.0004 15.77C11.2548 15.77 10.5259 15.5489 9.90589 15.1346C9.28592 14.7204 8.80271 14.1316 8.51736 13.4427C8.23202 12.7538 8.15736 11.9958 8.30283 11.2645C8.4483 10.5332 8.80735 9.86145 9.3346 9.33421C9.86184 8.80696 10.5336 8.44791 11.2649 8.30244C11.9962 8.15697 12.7542 8.23163 13.4431 8.51697C14.132 8.80232 14.7208 9.28553 15.135 9.9055C15.5493 10.5255 15.7704 11.2544 15.7704 12C15.7691 12.9995 15.3714 13.9576 14.6647 14.6643C13.958 15.3711 12.9999 15.7687 12.0004 15.77Z" fill="#181818"/>
</svg>
