<svg width="24" height="24" viewBox="0 0 24 24" fill="none" xmlns="http://www.w3.org/2000/svg">
<path d="M18.1829 11.55L20.272 13.79C20.3584 13.5419 20.4268 13.2879 20.4769 13.03V12.935C20.4769 12.83 20.5069 12.725 20.5169 12.62C20.5269 12.515 20.5169 12.415 20.5169 12.31C20.5169 12.205 20.5169 12.22 20.5169 12.175C20.5254 11.5282 20.4036 10.8863 20.1589 10.2876C19.9142 9.68888 19.5515 9.14555 19.0925 8.69C18.4236 8.03833 17.5544 7.6315 16.6257 7.53532C15.697 7.43913 14.763 7.65923 13.9748 8.16C13.4445 8.50714 12.99 8.95812 12.6387 9.48575C12.2874 10.0134 12.0465 10.6067 11.9307 11.23L16.5486 12.875L17.8131 11.55C17.8365 11.5242 17.8651 11.5036 17.8969 11.4895C17.9287 11.4754 17.9632 11.4682 17.998 11.4682C18.0328 11.4682 18.0673 11.4754 18.0991 11.4895C18.131 11.5036 18.1595 11.5242 18.1829 11.55Z" fill="#181818"/>
<path d="M12.0956 17.655L15.4341 14.08L6.15819 10.775L2.59975 12.395C2.41779 12.4786 2.26414 12.6135 2.15762 12.7831C2.0511 12.9527 1.99633 13.1497 2.00002 13.35V20.895C1.98853 21.1506 2.0754 21.4008 2.24273 21.5943C2.41007 21.7877 2.64516 21.9097 2.89962 21.935L16.7286 23L12.0956 18.05C12.0457 17.9963 12.018 17.9258 12.018 17.8525C12.018 17.7792 12.0457 17.7087 12.0956 17.655Z" fill="#181818"/>
<path d="M10.5962 10.75C10.9335 9.15128 11.8893 7.75101 13.2551 6.855C13.4818 6.71371 13.7172 6.58679 13.9598 6.475V5.22C13.9619 5.0478 13.922 4.87767 13.8437 4.72434C13.7653 4.57101 13.6508 4.43909 13.51 4.34L12.8203 3.87C12.7833 3.84528 12.753 3.81181 12.7321 3.77256C12.7112 3.73331 12.7002 3.68949 12.7003 3.645V2.05C12.707 1.91661 12.687 1.78323 12.6413 1.65772C12.5957 1.53222 12.5253 1.41714 12.4345 1.31927C12.3437 1.2214 12.2341 1.14272 12.1124 1.08789C11.9907 1.03305 11.8592 1.00317 11.7258 1H9.95653C9.82349 1.00383 9.69256 1.03419 9.57141 1.08932C9.45027 1.14444 9.34134 1.22321 9.25103 1.32102C9.16072 1.41882 9.09084 1.53368 9.04549 1.65886C9.00015 1.78404 8.98024 1.91702 8.98695 2.05V3.645C8.98704 3.68949 8.97613 3.73331 8.9552 3.77256C8.93428 3.81181 8.90398 3.84528 8.86701 3.87L8.17731 4.34C8.03497 4.43791 7.91899 4.56946 7.83965 4.72297C7.76031 4.87648 7.72008 5.0472 7.72251 5.22V9.72L10.5962 10.75Z" fill="#181818"/>
<path d="M21.9113 17.665L18.1829 13.925C18.1335 13.8767 18.0671 13.8497 17.998 13.8497C17.9289 13.8497 17.8626 13.8767 17.8131 13.925L14.0947 17.665C14.0672 17.6889 14.0451 17.7185 14.03 17.7517C14.0148 17.7849 14.007 17.821 14.007 17.8575C14.007 17.894 14.0148 17.9301 14.03 17.9633C14.0451 17.9965 14.0672 18.0261 14.0947 18.05L17.8231 21.79C17.8725 21.8383 17.9389 21.8653 18.008 21.8653C18.0771 21.8653 18.1434 21.8383 18.1929 21.79L21.9113 18.05C21.9388 18.0261 21.9609 17.9965 21.976 17.9633C21.9912 17.9301 21.999 17.894 21.999 17.8575C21.999 17.821 21.9912 17.7849 21.976 17.7517C21.9609 17.7185 21.9388 17.6889 21.9113 17.665Z" fill="#181818"/>
</svg>
