<svg width="24" height="24" viewBox="0 0 24 24" fill="none" xmlns="http://www.w3.org/2000/svg">
<path d="M21.61 15.805L13.34 13L13.14 12.935L12.335 12.665L10.39 12L6.33999 10.635L2.61998 12.26C2.43339 12.3366 2.27432 12.4679 2.16368 12.6365C2.05303 12.8052 1.99596 13.0033 1.99999 13.205V20.66C2.0053 20.9134 2.10432 21.1559 2.27792 21.3405C2.45152 21.5252 2.68739 21.639 2.93999 21.66L20.91 23H21C21.2568 23.0003 21.5038 22.9019 21.69 22.725C21.884 22.5331 21.9953 22.2729 22 22V15.94L21.61 15.805Z" fill="#181818"/>
<path d="M12.38 11.11L20.93 14C21.357 13.1047 21.4835 12.0955 21.2907 11.1225C21.0979 10.1495 20.5961 9.26481 19.86 8.6C19.1427 7.94615 18.2332 7.54175 17.2672 7.44713C16.3012 7.35251 15.3305 7.57276 14.5 8.075C13.9586 8.40989 13.4913 8.85182 13.1267 9.37371C12.7622 9.89559 12.5081 10.4864 12.38 11.11Z" fill="#181818"/>
<path d="M14.5 6.41V5.165C14.4969 4.99024 14.4493 4.81914 14.3619 4.66782C14.2744 4.51649 14.1499 4.38991 14 4.3L13.28 3.835C13.242 3.80975 13.2107 3.77559 13.1889 3.73551C13.1672 3.69542 13.1555 3.65062 13.155 3.605V2.03C13.159 1.89618 13.1361 1.76291 13.0876 1.6381C13.0392 1.51329 12.9662 1.39948 12.8729 1.30342C12.7796 1.20736 12.668 1.13101 12.5447 1.07889C12.4214 1.02677 12.2889 0.99994 12.155 1H10.31C10.1761 0.99994 10.0436 1.02677 9.92023 1.07889C9.79691 1.13101 9.6853 1.20736 9.59204 1.30342C9.49878 1.39948 9.42576 1.51329 9.3773 1.6381C9.32885 1.76291 9.30595 1.89618 9.30997 2.03V3.605C9.30945 3.65062 9.29779 3.69542 9.276 3.73551C9.25422 3.77559 9.22297 3.80975 9.18497 3.835L8.44997 4.3C8.30935 4.3958 8.19466 4.52494 8.11613 4.67588C8.03761 4.82682 7.9977 4.99487 7.99997 5.165V9.62L11 10.62C11.219 9.69579 11.6489 8.8348 12.2561 8.10442C12.8633 7.37405 13.6313 6.79411 14.5 6.41Z" fill="#181818"/>
</svg>
