<svg width="24" height="24" viewBox="0 0 24 24" fill="none" xmlns="http://www.w3.org/2000/svg">
<path d="M21.305 14.91L20.555 14.655C21.1917 13.7326 21.4721 12.6105 21.3443 11.497C21.2165 10.3835 20.6891 9.35419 19.86 8.6C19.3851 8.16711 18.823 7.84094 18.2115 7.64344C17.6001 7.44593 16.9534 7.38168 16.315 7.455C15.6704 7.52945 15.0504 7.74635 14.5 8.09V5.16C14.4961 4.98609 14.4481 4.81602 14.3607 4.66564C14.2733 4.51525 14.1492 4.38946 14 4.3L13.28 3.835C13.242 3.80975 13.2107 3.77559 13.189 3.73551C13.1672 3.69542 13.1555 3.65062 13.155 3.605V2.03C13.159 1.89618 13.1361 1.76291 13.0877 1.6381C13.0392 1.51329 12.9662 1.39948 12.8729 1.30342C12.7797 1.20736 12.6681 1.13101 12.5447 1.07889C12.4214 1.02677 12.2889 0.99994 12.155 1H10.31C10.1761 0.99994 10.0436 1.02677 9.92025 1.07889C9.79693 1.13101 9.68533 1.20736 9.59206 1.30342C9.4988 1.39948 9.42578 1.51329 9.37733 1.6381C9.32887 1.76291 9.30598 1.89618 9.30999 2.03V3.605C9.30947 3.65062 9.29781 3.69542 9.27603 3.73551C9.25424 3.77559 9.22299 3.80975 9.18499 3.835L8.46999 4.295C8.319 4.38616 8.19381 4.5144 8.1063 4.66753C8.01879 4.82067 7.97187 4.99363 7.96999 5.17V10.415L7.73499 10.335C7.4996 10.2552 7.24292 10.2659 7.01499 10.365L2.61499 12.26C2.43014 12.3371 2.27269 12.4679 2.16303 12.6355C2.05338 12.8031 1.99658 12.9997 1.99999 13.2V20.66C2.00531 20.9134 2.10432 21.1559 2.27792 21.3405C2.45152 21.5252 2.6874 21.639 2.93999 21.66L20.91 23H21C21.2578 22.9981 21.5057 22.9 21.695 22.725C21.8863 22.5317 21.9956 22.2719 22 22V15.885C22.0049 15.6693 21.9398 15.4577 21.8145 15.282C21.6893 15.1063 21.5105 14.9758 21.305 14.91ZM16.5 8.95C16.9303 8.89806 17.3668 8.94 17.7794 9.07292C18.192 9.20585 18.5709 9.42661 18.89 9.72C19.1948 9.99763 19.4416 10.3329 19.616 10.7065C19.7904 11.0801 19.8891 11.4845 19.9063 11.8964C19.9235 12.3084 19.8589 12.7196 19.7162 13.1064C19.5735 13.4932 19.3556 13.8479 19.075 14.15L13.825 12.38C13.7925 12.1193 13.7925 11.8557 13.825 11.595C13.916 10.9205 14.2278 10.2952 14.7118 9.81666C15.1957 9.33814 15.8245 9.03338 16.5 8.95ZM9.58999 5.35L10.31 4.885C10.4556 4.79404 10.5753 4.66714 10.6576 4.51652C10.7399 4.3659 10.782 4.19663 10.78 4.025V2.78C10.7793 2.74347 10.786 2.70717 10.7995 2.67323C10.813 2.63928 10.8331 2.60837 10.8587 2.58231C10.8844 2.55624 10.9149 2.53553 10.9486 2.5214C10.9823 2.50727 11.0185 2.49999 11.055 2.5H11.41C11.4829 2.5 11.5529 2.52897 11.6044 2.58055C11.656 2.63212 11.685 2.70207 11.685 2.775V4C11.6855 4.17309 11.7292 4.34331 11.8122 4.49523C11.8951 4.64715 12.0147 4.77597 12.16 4.87L12.875 5.33C12.9146 5.35399 12.9473 5.38774 12.97 5.42801C12.9928 5.46829 13.0048 5.51374 13.005 5.56V9.5C13.004 9.54934 12.9902 9.59758 12.965 9.64C12.6318 10.1791 12.4155 10.7821 12.33 11.41C12.33 11.57 12.3 11.73 12.295 11.885L9.64999 11C9.59541 10.9815 9.54788 10.9466 9.51388 10.9C9.47987 10.8535 9.46105 10.7976 9.45999 10.74V5.58C9.46014 5.53374 9.47217 5.48829 9.49494 5.44801C9.5177 5.40774 9.55043 5.37399 9.58999 5.35ZM7.53999 11.85L10.38 12.805C10.448 12.8243 10.5061 12.869 10.542 12.9299C10.5779 12.9909 10.589 13.0633 10.5729 13.1322C10.5568 13.201 10.5148 13.2611 10.4556 13.2998C10.3964 13.3385 10.3245 13.3529 10.255 13.34L6.45499 12.79C6.40157 12.7779 6.35311 12.7497 6.31604 12.7094C6.27898 12.6691 6.25506 12.6184 6.24746 12.5642C6.23987 12.5099 6.24895 12.4546 6.27352 12.4057C6.29808 12.3567 6.33696 12.3163 6.38499 12.29L7.34499 11.875C7.40489 11.8431 7.47487 11.836 7.53999 11.855V11.85ZM3.49999 19.96V14.205C3.50029 14.1657 3.50901 14.1269 3.52558 14.0912C3.54214 14.0556 3.56616 14.0239 3.59602 13.9983C3.62587 13.9727 3.66087 13.9538 3.69864 13.9429C3.73641 13.932 3.77609 13.9293 3.81499 13.935L20.315 16.305C20.3808 16.3147 20.4409 16.3479 20.4841 16.3984C20.5273 16.449 20.5507 16.5135 20.55 16.58V21.165C20.5494 21.2026 20.5412 21.2398 20.5259 21.2742C20.5106 21.3086 20.4885 21.3395 20.461 21.3652C20.4334 21.3909 20.401 21.4107 20.3656 21.4236C20.3302 21.4364 20.2926 21.442 20.255 21.44L3.75499 20.235C3.68558 20.2299 3.62067 20.1987 3.57334 20.1477C3.52602 20.0967 3.49981 20.0296 3.49999 19.96Z" fill="#181818"/>
</svg>
