<svg width="24" height="24" viewBox="0 0 24 24" fill="none" xmlns="http://www.w3.org/2000/svg">
<path d="M22.7315 12.5033L12.7614 1.32693C12.6616 1.22353 12.5421 1.14129 12.4098 1.08512C12.2776 1.02895 12.1354 1 11.9918 1C11.8481 1 11.7059 1.02895 11.5737 1.08512C11.4415 1.14129 11.3219 1.22353 11.2221 1.32693L1.27201 12.5033C1.13527 12.6485 1.04506 12.8313 1.013 13.0281C0.980943 13.225 1.00849 13.4269 1.0921 13.608C1.17274 13.7912 1.30503 13.9469 1.47279 14.0561C1.64054 14.1653 1.83648 14.2232 2.03663 14.2228H3.65084V22.0003C3.65867 22.269 3.77126 22.524 3.96457 22.7108C4.15787 22.8976 4.41655 23.0014 4.68534 23H19.3032C19.5725 23.0014 19.8317 22.8978 20.0258 22.7112C20.2199 22.5245 20.3336 22.2695 20.3427 22.0003V14.2328H21.9569C22.157 14.2332 22.353 14.1753 22.5207 14.0661C22.6885 13.9569 22.8208 13.8012 22.9014 13.618C22.9885 13.4367 23.0189 13.2333 22.9886 13.0344C22.9583 12.8356 22.8687 12.6505 22.7315 12.5033Z" fill="#181818"/>
</svg>
