<svg width="24" height="24" viewBox="0 0 24 24" fill="none" xmlns="http://www.w3.org/2000/svg">
<path d="M19.525 9.20773L17.82 5.11108C17.755 4.95594 17.6527 4.81909 17.5222 4.71256C17.3917 4.60603 17.237 4.53307 17.0716 4.5001C16.9062 4.46712 16.7352 4.47514 16.5736 4.52346C16.4121 4.57177 16.2649 4.65889 16.145 4.77717L15.45 5.46991C16.2148 6.57069 16.6421 7.86929 16.68 9.20773H19.525Z" fill="#181818"/>
<path d="M14.36 6.55637C13.753 5.57226 12.8437 4.80961 11.7671 4.38174C10.6906 3.95387 9.50426 3.88361 8.38445 4.18141C7.26464 4.4792 6.27111 5.12916 5.55147 6.03469C4.83183 6.94023 4.4245 8.05302 4.39 9.20773H15.175C15.1401 8.2682 14.8591 7.35413 14.36 6.55637Z" fill="#181818"/>
<path d="M2 10.7128C2.17901 13.2346 3.31033 15.595 5.16599 17.3184C7.02164 19.0418 9.46369 20 12 20C14.5363 20 16.9784 19.0418 18.834 17.3184C20.6897 15.595 21.821 13.2346 22 10.7128H2Z" fill="#181818"/>
</svg>
