<svg width="24" height="24" viewBox="0 0 24 24" fill="none" xmlns="http://www.w3.org/2000/svg">
<path d="M18.1955 12.8953C17.2452 12.8953 16.3163 13.1739 15.5262 13.6958C14.7361 14.2178 14.1203 14.9596 13.7567 15.8276C13.393 16.6955 13.2979 17.6506 13.4832 18.572C13.6686 19.4934 14.1262 20.3398 14.7981 21.0041C15.4701 21.6684 16.3262 22.1208 17.2581 22.3041C18.1901 22.4873 19.1562 22.3933 20.0341 22.0338C20.912 21.6742 21.6624 21.0654 22.1903 20.2843C22.7182 19.5031 23 18.5848 23 17.6453C22.9987 16.386 22.492 15.1785 21.5913 14.288C20.6906 13.3975 19.4693 12.8966 18.1955 12.8953Z" fill="#181818"/>
<path d="M20.2184 1.00032H2.0118C1.87681 1.00028 1.74318 1.02695 1.61879 1.07876C1.49439 1.13057 1.38174 1.20647 1.28748 1.302C1.19322 1.39752 1.11925 1.51073 1.06993 1.63496C1.02061 1.75918 0.996942 1.89191 1.00032 2.02532V21.9753C0.996942 22.1087 1.02061 22.2415 1.06993 22.3657C1.11925 22.4899 1.19322 22.6031 1.28748 22.6986C1.38174 22.7942 1.49439 22.8701 1.61879 22.9219C1.74318 22.9737 1.87681 23.0004 2.0118 23.0003H13.6438C12.8613 22.3364 12.234 21.5123 11.8053 20.5851C11.3765 19.658 11.1566 18.6498 11.1606 17.6303C11.1479 16.7235 11.316 15.8231 11.6553 14.9806C11.9946 14.138 12.4985 13.3698 13.1381 12.7197C13.7778 12.0697 14.5407 11.5506 15.3833 11.1921C16.2258 10.8336 17.1316 10.6427 18.0488 10.6303C19.1687 10.631 20.2707 10.9077 21.2552 11.4353V2.02532C21.2587 1.88978 21.2342 1.75496 21.1834 1.62904C21.1325 1.50313 21.0562 1.38877 20.9593 1.29289C20.8623 1.19702 20.7466 1.12165 20.6193 1.07135C20.4919 1.02105 20.3555 0.996888 20.2184 1.00032ZM17.2649 9.23532H5.07152C4.87033 9.23532 4.67737 9.1563 4.5351 9.01565C4.39284 8.875 4.31291 8.68423 4.31291 8.48532C4.31291 8.28641 4.39284 8.09564 4.5351 7.95499C4.67737 7.81434 4.87033 7.73532 5.07152 7.73532H17.2649C17.4661 7.73532 17.6591 7.81434 17.8013 7.95499C17.9436 8.09564 18.0235 8.28641 18.0235 8.48532C18.0235 8.68423 17.9436 8.875 17.8013 9.01565C17.6591 9.1563 17.4661 9.23532 17.2649 9.23532ZM17.2649 5.79032H5.07152C4.87033 5.79032 4.67737 5.7113 4.5351 5.57065C4.39284 5.43 4.31291 5.23923 4.31291 5.04032C4.31291 4.84141 4.39284 4.65064 4.5351 4.50999C4.67737 4.36934 4.87033 4.29032 5.07152 4.29032H17.2649C17.4661 4.29032 17.6591 4.36934 17.8013 4.50999C17.9436 4.65064 18.0235 4.84141 18.0235 5.04032C18.0235 5.23923 17.9436 5.43 17.8013 5.57065C17.6591 5.7113 17.4661 5.79032 17.2649 5.79032Z" fill="#181818"/>
</svg>
