<svg width="24" height="24" viewBox="0 0 24 24" fill="none" xmlns="http://www.w3.org/2000/svg">
<path fill-rule="evenodd" clip-rule="evenodd" d="M18.1954 14.4055C16.3798 14.4055 14.908 15.8638 14.908 17.6629C14.908 19.4619 16.3798 20.9203 18.1954 20.9203C20.011 20.9203 21.4828 19.4619 21.4828 17.6629C21.4828 15.8638 20.011 14.4055 18.1954 14.4055ZM13.3908 17.6629C13.3908 15.0335 15.5419 12.902 18.1954 12.902C20.8489 12.902 23 15.0335 23 17.6629C23 20.2922 20.8489 22.4237 18.1954 22.4237C15.5419 22.4237 13.3908 20.2922 13.3908 17.6629Z" fill="#181818"/>
<path d="M17.2598 4.29749H5.04598C4.84478 4.29749 4.65182 4.37669 4.50955 4.51766C4.36728 4.65864 4.28736 4.84984 4.28736 5.0492C4.28736 5.24857 4.36728 5.43977 4.50955 5.58074C4.65182 5.72171 4.84478 5.80091 5.04598 5.80091H17.2598C17.461 5.80091 17.6539 5.72171 17.7962 5.58074C17.9385 5.43977 18.0184 5.24857 18.0184 5.0492C18.0184 4.84984 17.9385 4.65864 17.7962 4.51766C17.6539 4.37669 17.461 4.29749 17.2598 4.29749Z" fill="#181818"/>
<path d="M17.2598 7.75034H5.04598C4.84478 7.75034 4.65182 7.82954 4.50955 7.97051C4.36728 8.11148 4.28736 8.30269 4.28736 8.50205C4.28736 8.70142 4.36728 8.89262 4.50955 9.03359C4.65182 9.17456 4.84478 9.25376 5.04598 9.25376H17.2598C17.461 9.25376 17.6539 9.17456 17.7962 9.03359C17.9385 8.89262 18.0184 8.70142 18.0184 8.50205C18.0184 8.30269 17.9385 8.11148 17.7962 7.97051C17.6539 7.82954 17.461 7.75034 17.2598 7.75034Z" fill="#181818"/>
<path d="M20.2184 1H2.01149C1.74323 1 1.48595 1.1056 1.29626 1.29356C1.10657 1.48152 1 1.73646 1 2.00228V21.9977C1 22.2635 1.10657 22.5185 1.29626 22.7064C1.48595 22.8944 1.74323 23 2.01149 23H11.1655C11.3516 22.9787 11.5233 22.8903 11.648 22.7517C11.7726 22.6131 11.8415 22.4339 11.8415 22.2483C11.8415 22.0627 11.7726 21.8835 11.648 21.7449C11.5233 21.6063 11.3516 21.5179 11.1655 21.4966H2.75494C2.68251 21.4966 2.61305 21.4681 2.56183 21.4173C2.51061 21.3666 2.48184 21.2977 2.48184 21.226V2.77904C2.48117 2.74309 2.48773 2.70736 2.50116 2.67394C2.51458 2.64053 2.53459 2.6101 2.56002 2.58444C2.58545 2.55878 2.61578 2.5384 2.64925 2.52448C2.68272 2.51057 2.71865 2.50341 2.75494 2.50342H19.4699C19.5066 2.50274 19.5431 2.5094 19.5771 2.52301C19.6112 2.53662 19.6421 2.5569 19.6681 2.58263C19.6941 2.60836 19.7145 2.63902 19.7283 2.67277C19.742 2.70651 19.7487 2.74266 19.748 2.77904V11.0228C19.7396 11.1243 19.7524 11.2264 19.7858 11.3228C19.8192 11.4191 19.8724 11.5075 19.942 11.5825C20.0117 11.6574 20.0962 11.7172 20.1904 11.7581C20.2845 11.799 20.3862 11.8202 20.489 11.8202C20.5918 11.8202 20.6934 11.799 20.7876 11.7581C20.8817 11.7172 20.9663 11.6574 21.0359 11.5825C21.1055 11.5075 21.1587 11.4191 21.1921 11.3228C21.2255 11.2264 21.2384 11.1243 21.2299 11.0228V2.02733C21.2333 1.89362 21.2096 1.76059 21.1603 1.63608C21.111 1.51157 21.037 1.3981 20.9427 1.30236C20.8485 1.20662 20.7358 1.13055 20.6114 1.07862C20.487 1.02669 20.3534 0.999958 20.2184 1Z" fill="#181818"/>
</svg>
