<svg width="24" height="24" viewBox="0 0 24 24" fill="none" xmlns="http://www.w3.org/2000/svg">
<path d="M11.765 21.125C11.8059 21.2935 11.8924 21.4474 12.015 21.57C12.1078 21.666 12.2189 21.7424 12.3417 21.7948C12.4645 21.8472 12.5965 21.8745 12.73 21.875L19.05 22C19.1834 22.0033 19.3161 21.9799 19.4404 21.9312C19.5646 21.8824 19.6778 21.8093 19.7733 21.7161C19.8688 21.6229 19.9447 21.5115 19.9966 21.3885C20.0484 21.2656 20.075 21.1334 20.075 21L20.245 12.795L11.765 21.125Z" fill="#181818"/>
<path d="M9.24 21.5L22 9L20.385 4.325C20.3328 4.17631 20.2469 4.04166 20.1342 3.93153C20.0215 3.8214 19.8849 3.73875 19.735 3.69L14.71 2.05C14.5293 1.99098 14.3359 1.98261 14.1508 2.0258C13.9657 2.069 13.7959 2.1621 13.66 2.295L2.3 13.395C2.20551 13.4876 2.13034 13.5981 2.07885 13.7199C2.02735 13.8418 2.00055 13.9727 2 14.105C2.00186 14.2368 2.02976 14.367 2.08211 14.488C2.13445 14.6089 2.2102 14.7184 2.305 14.81L9.015 21.355C9.08217 21.4145 9.15804 21.4634 9.24 21.5ZM13.525 7.095C13.9774 6.66035 14.5827 6.42143 15.21 6.43C15.8351 6.42728 16.4364 6.6696 16.885 7.105C17.1053 7.31807 17.2805 7.57329 17.4002 7.85547C17.5198 8.13764 17.5815 8.441 17.5815 8.7475C17.5815 9.05399 17.5198 9.35735 17.4002 9.63953C17.2805 9.9217 17.1053 10.1769 16.885 10.39C16.4375 10.8277 15.8359 11.0719 15.21 11.07C14.5824 11.0727 13.979 10.8284 13.53 10.39C13.3101 10.1773 13.1352 9.92269 13.0156 9.64116C12.896 9.35963 12.8341 9.05694 12.8336 8.75105C12.8331 8.44516 12.8941 8.14229 13.0129 7.8604C13.1316 7.57851 13.3058 7.32333 13.525 7.11V7.095Z" fill="#181818"/>
</svg>
