<svg width="93" height="24" viewBox="0 0 93 24" fill="none" xmlns="http://www.w3.org/2000/svg">
<g filter="url(#filter0_d_301_264)">
<path fill-rule="evenodd" clip-rule="evenodd" d="M69 15.4547V8H71.4921V10.5708H72.9144V8H75.4035V15.4547H72.9144V12.8809H71.4921V15.4547H69ZM70.892 12.2689H73.5145V14.8428H74.8034V8.61196H73.5145V11.1828H70.892V8.61196H69.6001V14.8428H70.892V12.2689ZM80.3868 8H82.8789V12.6583C82.8789 13.2137 82.7475 13.728 82.4664 14.1786C82.1922 14.6213 81.81 14.9605 81.3384 15.1971L81.3362 15.1983C80.8599 15.4347 80.3244 15.543 79.7458 15.543C79.1656 15.543 78.6289 15.4349 78.1524 15.1983L78.1501 15.1971C77.6782 14.9603 77.2957 14.6207 77.0215 14.1775C76.7427 13.7269 76.6126 13.2131 76.6126 12.6583V8H79.1047V12.5458C79.1047 12.69 79.1344 12.7951 79.1791 12.8772C79.2264 12.9608 79.2904 13.026 79.3829 13.0782C79.4673 13.1258 79.582 13.1599 79.7458 13.1599C79.9126 13.1599 80.0259 13.1254 80.1063 13.0795L80.1087 13.0782C80.201 13.0261 80.2631 12.9616 80.3083 12.8794L80.3107 12.875C80.3565 12.7933 80.3868 12.6892 80.3868 12.5458V8ZM78.6568 13.1786C78.5553 12.994 78.5046 12.7831 78.5046 12.5458V8.61196H77.2128V12.6583C77.2128 13.1127 77.3182 13.5102 77.529 13.851C77.7398 14.1917 78.0352 14.4574 78.4151 14.6481C78.795 14.8367 79.2386 14.931 79.7458 14.931C80.251 14.931 80.6935 14.8367 81.0734 14.6481C81.4533 14.4574 81.7487 14.1917 81.9595 13.851C82.1724 13.5102 82.2788 13.1127 82.2788 12.6583V8.61196H80.9869V12.5458C80.9869 12.7831 80.9352 12.994 80.8318 13.1786C80.7303 13.3632 80.5861 13.5082 80.3992 13.6137C80.2142 13.7191 79.9964 13.7719 79.7458 13.7719C79.4971 13.7719 79.2793 13.7191 79.0924 13.6137C78.9054 13.5082 78.7602 13.3632 78.6568 13.1786ZM84.0858 15.4547V8H87.1324C87.6368 8 88.1009 8.07559 88.5006 8.25643C88.8897 8.43247 89.215 8.69305 89.4398 9.05157C89.6588 9.39893 89.7613 9.79171 89.7613 10.2092C89.7613 10.5355 89.6968 10.8505 89.5488 11.1367L89.5475 11.1391C89.4797 11.2689 89.3989 11.3882 89.3059 11.4964C89.4723 11.6447 89.6128 11.8209 89.727 12.021C89.9177 12.3525 90 12.7273 90 13.1208C90 13.5576 89.892 13.9676 89.666 14.3323M89.2089 12.3298C89.1076 12.1522 88.9817 12.0061 88.8313 11.8915C88.7927 11.8621 88.7525 11.8348 88.7107 11.8095C88.5117 11.6882 88.2985 11.6215 88.0708 11.6094C88.0663 11.6091 88.0618 11.6089 88.0573 11.6087V11.5479L88.0599 11.5473C88.2716 11.4985 88.4597 11.4166 88.6242 11.3014C88.6836 11.2596 88.7386 11.2136 88.789 11.1635C88.8802 11.0728 88.9565 10.9687 89.018 10.8512C89.1135 10.6666 89.1612 10.4526 89.1612 10.2092C89.1612 9.89686 89.0856 9.62102 88.9345 9.38168C88.7833 9.14032 88.5575 8.95169 88.2572 8.8158C87.9569 8.6799 87.5819 8.61196 87.1324 8.61196H84.6859V14.8428H87.2965C87.754 14.8428 88.1388 14.7677 88.4511 14.6176C88.7634 14.4676 88.9991 14.2637 89.1582 14.0061C89.3193 13.7465 89.3999 13.4514 89.3999 13.1208C89.3999 12.8145 89.3362 12.5508 89.2089 12.3298ZM87.7351 10.8512C87.8166 10.7335 87.8574 10.5926 87.8574 10.4283C87.8574 10.2031 87.7788 10.0216 87.6217 9.88368C87.4666 9.74576 87.2458 9.67679 86.9594 9.67679H85.9778V11.2193H86.9355C87.1125 11.2193 87.2696 11.1879 87.4069 11.125C87.4241 11.1169 87.4409 11.1085 87.4572 11.0997C87.4935 11.08 87.5276 11.0583 87.5595 11.0346C87.6288 10.9829 87.6873 10.9218 87.7351 10.8512ZM87.4572 12.1673C87.3395 12.1296 87.2074 12.1107 87.0608 12.1107H85.9778V13.7658H87.031C87.391 13.7658 87.6535 13.6958 87.8186 13.5558C87.9837 13.4139 88.0662 13.2252 88.0662 12.99C88.0662 12.8176 88.0255 12.6654 87.9439 12.5336C87.8624 12.4018 87.746 12.2983 87.5949 12.2233C87.5776 12.2146 87.56 12.2064 87.542 12.1988C87.5146 12.1871 87.4863 12.1766 87.4572 12.1673ZM87.4342 13.0859C87.4502 13.0716 87.4544 13.0628 87.4563 13.0585C87.4588 13.0529 87.4661 13.0336 87.4661 12.99C87.4661 12.9204 87.4511 12.884 87.4363 12.8601C87.4203 12.8341 87.3932 12.8038 87.3322 12.7735L87.3293 12.7721C87.2804 12.7475 87.1975 12.7227 87.0608 12.7227H86.5779V13.1538H87.031C87.3284 13.1538 87.4237 13.0937 87.4342 13.0859ZM87.1592 10.5676C87.208 10.5445 87.2288 10.5219 87.2411 10.5037L87.245 10.4979C87.245 10.4979 87.2573 10.4845 87.2573 10.4283C87.2573 10.3893 87.2508 10.3734 87.2495 10.3704C87.2485 10.3681 87.2453 10.3607 87.2302 10.3475L87.2273 10.345C87.2177 10.3364 87.1574 10.2888 86.9594 10.2888H86.5779V10.6073H86.9355C87.0412 10.6073 87.1118 10.589 87.1592 10.5676ZM89.666 14.3323C89.4368 14.7033 89.1062 14.9793 88.707 15.1712C88.2931 15.3701 87.815 15.4547 87.2965 15.4547H84.0858" fill="#FF280B"/>
</g>
<path d="M14.517 9.90909H10.5114C10.483 9.57765 10.4072 9.27699 10.2841 9.0071C10.1657 8.73722 10 8.50521 9.78693 8.31108C9.5786 8.11222 9.32528 7.9607 9.02699 7.85653C8.72869 7.74763 8.39015 7.69318 8.01136 7.69318C7.34848 7.69318 6.78741 7.85417 6.32812 8.17614C5.87358 8.49811 5.52794 8.95975 5.29119 9.56108C5.05919 10.1624 4.94318 10.8845 4.94318 11.7273C4.94318 12.6174 5.06155 13.3632 5.2983 13.9645C5.53977 14.5611 5.88778 15.0109 6.34233 15.3139C6.79688 15.6122 7.34375 15.7614 7.98295 15.7614C8.34754 15.7614 8.67424 15.7164 8.96307 15.6264C9.25189 15.5317 9.50284 15.3968 9.71591 15.2216C9.92898 15.0464 10.1018 14.8357 10.2344 14.5895C10.3717 14.3385 10.464 14.0568 10.5114 13.7443L14.517 13.7727C14.4697 14.3883 14.2969 15.0156 13.9986 15.6548C13.7003 16.2893 13.2765 16.8764 12.7273 17.4162C12.1828 17.9512 11.508 18.3821 10.7031 18.7088C9.8982 19.0355 8.96307 19.1989 7.89773 19.1989C6.5625 19.1989 5.36458 18.9124 4.30398 18.3395C3.24811 17.7666 2.41241 16.9238 1.79688 15.8111C1.18608 14.6984 0.880682 13.3371 0.880682 11.7273C0.880682 10.108 1.19318 8.74432 1.81818 7.63636C2.44318 6.52367 3.28598 5.68324 4.34659 5.11506C5.4072 4.54214 6.59091 4.25568 7.89773 4.25568C8.81629 4.25568 9.66146 4.38115 10.4332 4.6321C11.205 4.88305 11.8821 5.25 12.4645 5.73295C13.0469 6.21117 13.5156 6.80066 13.8707 7.50142C14.2259 8.20218 14.4413 9.00473 14.517 9.90909ZM20.8378 19H16.5764L21.3776 4.45455H26.7753L31.5764 19H27.3151L24.1332 8.46023H24.0196L20.8378 19ZM20.0423 13.2614H28.0537V16.2159H20.0423V13.2614ZM34.1773 19V4.45455H44.4046V7.63636H38.1262V10.1364H43.7796V13.3182H38.1262V19H34.1773ZM47.057 19V4.45455H57.54V7.63636H51.0059V10.1364H57.0002V13.3182H51.0059V15.8182H57.5116V19H47.057Z" fill="white"/>
<defs>
<filter id="filter0_d_301_264" x="66" y="5" width="27" height="13.543" filterUnits="userSpaceOnUse" color-interpolation-filters="sRGB">
<feFlood flood-opacity="0" result="BackgroundImageFix"/>
<feColorMatrix in="SourceAlpha" type="matrix" values="0 0 0 0 0 0 0 0 0 0 0 0 0 0 0 0 0 0 127 0" result="hardAlpha"/>
<feOffset/>
<feGaussianBlur stdDeviation="1.5"/>
<feComposite in2="hardAlpha" operator="out"/>
<feColorMatrix type="matrix" values="0 0 0 0 1 0 0 0 0 0.156863 0 0 0 0 0.0431373 0 0 0 0.45 0"/>
<feBlend mode="normal" in2="BackgroundImageFix" result="effect1_dropShadow_301_264"/>
<feBlend mode="normal" in="SourceGraphic" in2="effect1_dropShadow_301_264" result="shape"/>
</filter>
</defs>
</svg>
