<svg width="101" height="24" viewBox="0 0 101 24" fill="none" xmlns="http://www.w3.org/2000/svg">
<g filter="url(#filter0_d_301_264)">
<path fill-rule="evenodd" clip-rule="evenodd" d="M65 17.8596V6H68.9161V10.0899H71.1512V6H75.0626V17.8596H71.1512V13.7649H68.9161V17.8596H65ZM67.9731 12.7914H72.0942V16.8861H74.1196V6.97355H72.0942V11.0634H67.9731V6.97355H65.943V16.8861H67.9731V12.7914ZM82.8935 6H86.8097V13.4109C86.8097 14.2944 86.6033 15.1125 86.1615 15.8294C85.7306 16.5337 85.13 17.0733 84.389 17.4498L84.3854 17.4516C83.637 17.8278 82.7955 18 81.8862 18C80.9744 18 80.1312 17.828 79.3823 17.4516L79.3788 17.4498C78.6372 17.073 78.0361 16.5328 77.6052 15.8277C77.1671 15.1109 76.9627 14.2934 76.9627 13.4109V6H80.8789V13.2318C80.8789 13.4613 80.9255 13.6284 80.9957 13.7591C81.0701 13.8921 81.1707 13.9958 81.3159 14.0788C81.4487 14.1546 81.6289 14.2088 81.8862 14.2088C82.1484 14.2088 82.3264 14.1539 82.4527 14.0809L82.4565 14.0788C82.6015 13.9959 82.6992 13.8933 82.7701 13.7626L82.774 13.7555C82.8459 13.6255 82.8935 13.46 82.8935 13.2318V6ZM80.1749 14.2385C80.0155 13.9449 79.9358 13.6093 79.9358 13.2318V6.97355H77.9058V13.4109C77.9058 14.1337 78.0714 14.7661 78.4027 15.3082C78.734 15.8503 79.1982 16.273 79.7952 16.5763C80.3922 16.8764 81.0892 17.0264 81.8862 17.0264C82.6801 17.0264 83.3756 16.8764 83.9725 16.5763C84.5695 16.273 85.0337 15.8503 85.365 15.3082C85.6994 14.7661 85.8667 14.1337 85.8667 13.4109V6.97355H83.8366V13.2318C83.8366 13.6093 83.7553 13.9449 83.5928 14.2385C83.4334 14.5322 83.2068 14.7629 82.913 14.9307C82.6223 15.0985 82.28 15.1824 81.8862 15.1824C81.4955 15.1824 81.1533 15.0985 80.8594 14.9307C80.5656 14.7629 80.3375 14.5322 80.1749 14.2385ZM88.7063 17.8596V6H93.4938C94.2863 6 95.0157 6.12026 95.6438 6.40795C96.2552 6.68801 96.7664 7.10257 97.1196 7.67293C97.4638 8.22553 97.6249 8.8504 97.6249 9.51461C97.6249 10.0337 97.5236 10.5348 97.291 10.9901L97.2889 10.994C97.1823 11.2004 97.0554 11.3902 96.9092 11.5623C97.1708 11.7983 97.3915 12.0786 97.5711 12.3969C97.8706 12.9244 98 13.5206 98 14.1466C98 14.8416 97.8304 15.4937 97.4751 16.074M96.7569 12.8882C96.5977 12.6057 96.3999 12.3732 96.1634 12.1909C96.1028 12.1441 96.0396 12.1007 95.9739 12.0605C95.6613 11.8675 95.3261 11.7614 94.9684 11.7421C94.9614 11.7417 94.9543 11.7414 94.9472 11.7411V11.6443L94.9512 11.6433C95.284 11.5658 95.5796 11.4354 95.838 11.2522C95.9314 11.1856 96.0178 11.1124 96.097 11.0327C96.2403 10.8885 96.3602 10.7229 96.4568 10.5359C96.6069 10.2422 96.6819 9.90182 96.6819 9.51461C96.6819 9.01769 96.5631 8.57885 96.3256 8.1981C96.088 7.81412 95.7333 7.51403 95.2613 7.29784C94.7893 7.08165 94.2002 6.97355 93.4938 6.97355H89.6493V16.8861H93.7516C94.4705 16.8861 95.0753 16.7667 95.5661 16.5279C96.0568 16.2891 96.4272 15.9649 96.6772 15.5551C96.9304 15.142 97.057 14.6725 97.057 14.1466C97.057 13.6593 96.9569 13.2399 96.7569 12.8882ZM94.4408 10.5359C94.569 10.3487 94.6331 10.1245 94.6331 9.8631C94.6331 9.50493 94.5096 9.21613 94.2627 8.99672C94.0189 8.7773 93.6719 8.66759 93.2219 8.66759H91.6794V11.1215H93.1843C93.4625 11.1215 93.7094 11.0715 93.9251 10.9715C93.9522 10.9587 93.9785 10.9453 94.0041 10.9312C94.0613 10.8999 94.1149 10.8654 94.1649 10.8277C94.2738 10.7455 94.3658 10.6483 94.4408 10.5359ZM94.0041 12.6296C93.8193 12.5697 93.6117 12.5397 93.3813 12.5397H91.6794V15.1727H93.3344C93.9001 15.1727 94.3127 15.0614 94.5721 14.8387C94.8315 14.6128 94.9612 14.3128 94.9612 13.9385C94.9612 13.6642 94.8972 13.4222 94.769 13.2124C94.6409 13.0027 94.458 12.8381 94.2205 12.7188C94.1934 12.705 94.1657 12.692 94.1374 12.6798C94.0944 12.6612 94.05 12.6445 94.0041 12.6296ZM93.9681 14.091C93.9932 14.0684 93.9998 14.0544 94.0028 14.0475C94.0067 14.0386 94.0182 14.0079 94.0182 13.9385C94.0182 13.8279 93.9946 13.7699 93.9714 13.7318C93.9462 13.6905 93.9037 13.6423 93.8077 13.5941L93.8033 13.5919C93.7263 13.5527 93.5961 13.5132 93.3813 13.5132H92.6224V14.1991H93.3344C93.8017 14.1991 93.9515 14.1035 93.9681 14.091ZM93.5359 10.0847C93.6126 10.048 93.6452 10.0121 93.6645 9.98315L93.6707 9.97386C93.6707 9.97386 93.69 9.95249 93.69 9.8631C93.69 9.80118 93.6798 9.77589 93.6777 9.77096C93.6762 9.76738 93.6712 9.75566 93.6475 9.73457L93.643 9.73057C93.6278 9.71692 93.5331 9.64114 93.2219 9.64114H92.6224V10.148H93.1843C93.3505 10.148 93.4613 10.1188 93.5359 10.0847ZM97.4751 16.074C97.115 16.6641 96.5955 17.1033 95.9681 17.4086C95.3177 17.725 94.5664 17.8596 93.7516 17.8596H88.7063" fill="#FF280B"/>
</g>
<path d="M14.517 9.90909H10.5114C10.483 9.57765 10.4072 9.27699 10.2841 9.0071C10.1657 8.73722 10 8.50521 9.78693 8.31108C9.5786 8.11222 9.32528 7.9607 9.02699 7.85653C8.72869 7.74763 8.39015 7.69318 8.01136 7.69318C7.34848 7.69318 6.78741 7.85417 6.32812 8.17614C5.87358 8.49811 5.52794 8.95975 5.29119 9.56108C5.05919 10.1624 4.94318 10.8845 4.94318 11.7273C4.94318 12.6174 5.06155 13.3632 5.2983 13.9645C5.53977 14.5611 5.88778 15.0109 6.34233 15.3139C6.79688 15.6122 7.34375 15.7614 7.98295 15.7614C8.34754 15.7614 8.67424 15.7164 8.96307 15.6264C9.25189 15.5317 9.50284 15.3968 9.71591 15.2216C9.92898 15.0464 10.1018 14.8357 10.2344 14.5895C10.3717 14.3385 10.464 14.0568 10.5114 13.7443L14.517 13.7727C14.4697 14.3883 14.2969 15.0156 13.9986 15.6548C13.7003 16.2893 13.2765 16.8764 12.7273 17.4162C12.1828 17.9512 11.508 18.3821 10.7031 18.7088C9.8982 19.0355 8.96307 19.1989 7.89773 19.1989C6.5625 19.1989 5.36458 18.9124 4.30398 18.3395C3.24811 17.7666 2.41241 16.9238 1.79688 15.8111C1.18608 14.6984 0.880682 13.3371 0.880682 11.7273C0.880682 10.108 1.19318 8.74432 1.81818 7.63636C2.44318 6.52367 3.28598 5.68324 4.34659 5.11506C5.4072 4.54214 6.59091 4.25568 7.89773 4.25568C8.81629 4.25568 9.66146 4.38115 10.4332 4.6321C11.205 4.88305 11.8821 5.25 12.4645 5.73295C13.0469 6.21117 13.5156 6.80066 13.8707 7.50142C14.2259 8.20218 14.4413 9.00473 14.517 9.90909ZM20.8378 19H16.5764L21.3776 4.45455H26.7753L31.5764 19H27.3151L24.1332 8.46023H24.0196L20.8378 19ZM20.0423 13.2614H28.0537V16.2159H20.0423V13.2614ZM34.1773 19V4.45455H44.4046V7.63636H38.1262V10.1364H43.7796V13.3182H38.1262V19H34.1773ZM47.057 19V4.45455H57.54V7.63636H51.0059V10.1364H57.0002V13.3182H51.0059V15.8182H57.5116V19H47.057Z" fill="white"/>
<defs>
<filter id="filter0_d_301_264" x="62" y="3" width="39" height="18" filterUnits="userSpaceOnUse" color-interpolation-filters="sRGB">
<feFlood flood-opacity="0" result="BackgroundImageFix"/>
<feColorMatrix in="SourceAlpha" type="matrix" values="0 0 0 0 0 0 0 0 0 0 0 0 0 0 0 0 0 0 127 0" result="hardAlpha"/>
<feOffset/>
<feGaussianBlur stdDeviation="1.5"/>
<feComposite in2="hardAlpha" operator="out"/>
<feColorMatrix type="matrix" values="0 0 0 0 1 0 0 0 0 0.156863 0 0 0 0 0.0431373 0 0 0 0.45 0"/>
<feBlend mode="normal" in2="BackgroundImageFix" result="effect1_dropShadow_301_264"/>
<feBlend mode="normal" in="SourceGraphic" in2="effect1_dropShadow_301_264" result="shape"/>
</filter>
</defs>
</svg>
