<svg width="24" height="24" viewBox="0 0 24 24" fill="none" xmlns="http://www.w3.org/2000/svg">
<path d="M15.2043 21.355L3.7136 20.465C3.6451 20.46 3.58095 20.4295 3.53379 20.3795C3.48663 20.3296 3.45988 20.2637 3.45881 20.195V14.365C3.45839 14.3253 3.46658 14.2859 3.48281 14.2496C3.49905 14.2134 3.52295 14.181 3.55286 14.1549C3.58278 14.1288 3.618 14.1094 3.6561 14.0982C3.69419 14.087 3.73427 14.0842 3.77355 14.09L13.9903 15.65L16.0136 13.5L13.3208 12.5C13.2906 12.2359 13.2906 11.9691 13.3208 11.705C13.3936 11.0374 13.6849 10.4126 14.1494 9.92795C14.6138 9.44324 15.2253 9.12579 15.8887 9.025C16.3042 8.97407 16.7258 9.01778 17.122 9.15284C17.5182 9.28791 17.8788 9.51085 18.1769 9.805C18.492 10.1068 18.7429 10.4692 18.9146 10.8704C19.0863 11.2717 19.1752 11.7035 19.176 12.14C19.1836 12.2632 19.1836 12.3868 19.176 12.51L20.3401 13.755C20.5232 13.236 20.6194 12.6904 20.6249 12.14C20.6281 11.494 20.5014 10.8539 20.2526 10.2577C20.0037 9.66164 19.6376 9.1217 19.176 8.67C18.7313 8.23636 18.1957 7.90727 17.6081 7.70662C17.0205 7.50598 16.3956 7.43881 15.7788 7.51C15.1388 7.58843 14.5262 7.81621 13.9903 8.175V5.22C13.9927 5.0472 13.9525 4.87648 13.8732 4.72297C13.7938 4.56946 13.6779 4.43791 13.5356 4.34L12.8462 3.87C12.8092 3.84528 12.7789 3.81181 12.758 3.77256C12.7371 3.73331 12.7262 3.68949 12.7263 3.645V2.04C12.7316 1.9066 12.7102 1.77349 12.6634 1.6485C12.6165 1.52351 12.5451 1.40918 12.4534 1.31225C12.3616 1.21532 12.2514 1.13776 12.1293 1.08413C12.0071 1.0305 11.8755 1.0019 11.7421 1H9.9935C9.85885 0.999892 9.72557 1.02702 9.60167 1.07976C9.47776 1.1325 9.36578 1.20975 9.27245 1.30689C9.17913 1.40403 9.10638 1.51904 9.05859 1.64502C9.01079 1.771 8.98893 1.90535 8.99431 2.04V3.645C8.99341 3.68986 8.98156 3.73381 8.95979 3.77303C8.93802 3.81225 8.90699 3.84554 8.86941 3.87L8.17998 4.34C8.03924 4.43909 7.92475 4.57101 7.8464 4.72434C7.76806 4.87767 7.72822 5.0478 7.73034 5.22V10.53L7.49553 10.445C7.27189 10.3674 7.02709 10.3781 6.81109 10.475L2.6095 12.395C2.42652 12.4782 2.27155 12.6126 2.16337 12.7821C2.05519 12.9516 1.99844 13.1489 2 13.35V20.895C1.9886 21.1514 2.07612 21.4023 2.24444 21.5959C2.41276 21.7895 2.64899 21.9109 2.90426 21.935L16.738 23L15.2043 21.355ZM9.15918 5.63C9.15918 5.58497 9.17065 5.54067 9.1925 5.50131C9.21435 5.46194 9.24587 5.42879 9.28408 5.405L9.9935 4.935C10.1342 4.83591 10.2487 4.70399 10.3271 4.55066C10.4054 4.39733 10.4453 4.2272 10.4431 4.055V2.8C10.4431 2.72707 10.4721 2.65712 10.5236 2.60555C10.5751 2.55397 10.645 2.525 10.7179 2.525H11.0377C11.1105 2.525 11.1804 2.55397 11.2319 2.60555C11.2835 2.65712 11.3124 2.72707 11.3124 2.8V4.055C11.3094 4.22735 11.3489 4.39779 11.4273 4.55126C11.5057 4.70473 11.6207 4.83653 11.7621 4.935L12.4515 5.4C12.4882 5.42611 12.5183 5.46057 12.5391 5.50056C12.56 5.54054 12.571 5.5849 12.5714 5.63V9.595C12.5724 9.64079 12.5602 9.68589 12.5364 9.725C12.2124 10.2696 11.9985 10.8728 11.9069 11.5C11.9069 11.66 11.877 11.82 11.872 12L9.34403 11.1C9.29003 11.0813 9.2432 11.0462 9.21007 10.9996C9.17694 10.953 9.15915 10.8972 9.15918 10.84V5.63ZM7.33066 12L10.0734 13C10.12 13.0323 10.1554 13.0783 10.1748 13.1316C10.1942 13.1848 10.1967 13.2428 10.182 13.2976C10.1672 13.3523 10.1359 13.4011 10.0923 13.4374C10.0487 13.4736 9.99503 13.4955 9.93855 13.5L6.27153 12.94C6.21982 12.9257 6.17341 12.8967 6.13802 12.8563C6.10263 12.816 6.07981 12.7662 6.07238 12.713C6.06494 12.6598 6.07321 12.6057 6.09617 12.5572C6.11913 12.5086 6.15577 12.4679 6.20158 12.44L7.12583 12C7.19183 11.975 7.26466 11.975 7.33066 12Z" fill="#181818"/>
<path d="M17.8271 21.775L14.0952 18.035C14.047 17.9855 14.02 17.9191 14.02 17.85C14.02 17.7809 14.047 17.7145 14.0952 17.665L17.8271 13.925C17.8766 13.8767 17.9429 13.8497 18.012 13.8497C18.0811 13.8497 18.1474 13.8767 18.1968 13.925L21.9238 17.665C21.972 17.7145 21.999 17.7809 21.999 17.85C21.999 17.9191 21.972 17.9855 21.9238 18.035L18.1968 21.775C18.1474 21.8233 18.0811 21.8503 18.012 21.8503C17.9429 21.8503 17.8766 21.8233 17.8271 21.775ZM16.1235 18.035L17.8271 19.74C17.8509 19.7651 17.8796 19.7851 17.9114 19.7988C17.9432 19.8125 17.9774 19.8195 18.012 19.8195C18.0466 19.8195 18.0808 19.8125 18.1126 19.7988C18.1444 19.7851 18.173 19.7651 18.1968 19.74L19.8955 18.035C19.9205 18.0112 19.9405 17.9825 19.9542 17.9507C19.9678 17.9189 19.9749 17.8846 19.9749 17.85C19.9749 17.8154 19.9678 17.7811 19.9542 17.7493C19.9405 17.7175 19.9205 17.6888 19.8955 17.665L18.1968 15.96C18.173 15.9349 18.1444 15.9149 18.1126 15.9012C18.0808 15.8875 18.0466 15.8805 18.012 15.8805C17.9774 15.8805 17.9432 15.8875 17.9114 15.9012C17.8796 15.9149 17.8509 15.9349 17.8271 15.96L16.1235 17.665C16.0753 17.7145 16.0483 17.7809 16.0483 17.85C16.0483 17.9191 16.0753 17.9855 16.1235 18.035Z" fill="#181818"/>
</svg>
