<svg width="16" height="16" viewBox="0 0 16 16" fill="none" xmlns="http://www.w3.org/2000/svg">
<path d="M12.8601 5.13501C12.8131 5.09223 12.7572 5.05827 12.6956 5.0351C12.634 5.01193 12.5679 5 12.5012 5C12.4345 5 12.3684 5.01193 12.3068 5.0351C12.2452 5.05827 12.1893 5.09223 12.1423 5.13501L8.09854 8.78634C8.08155 8.80235 8.06115 8.8151 8.03856 8.8238C8.01598 8.83251 7.99167 8.837 7.96711 8.837C7.94255 8.837 7.91825 8.83251 7.89566 8.8238C7.87308 8.8151 7.85268 8.80235 7.83569 8.78634L3.79192 5.13501C3.69478 5.07468 3.57734 5.04691 3.45991 5.0565C3.34249 5.0661 3.23248 5.11245 3.14891 5.18755C3.06534 5.26265 3.01347 5.36176 3.00228 5.46774C2.99109 5.57372 3.02128 5.6799 3.08763 5.7679L7.61665 9.86652C7.71143 9.95199 7.8399 10 7.97385 10C8.1078 10 8.23628 9.95199 8.33105 9.86652L12.8601 5.7679C12.9499 5.68251 13 5.56923 13 5.45146C13 5.33368 12.9499 5.2204 12.8601 5.13501Z" fill="#181818"/>
</svg>
