<svg width="24" height="24" viewBox="0 0 24 24" fill="none" xmlns="http://www.w3.org/2000/svg">
<path d="M19.3049 23H4.68399C4.41514 23.0014 4.15641 22.8976 3.96306 22.7107C3.76972 22.5239 3.6571 22.2688 3.64927 22V14.5C3.64927 14.4271 3.62031 14.3571 3.56875 14.3055C3.51719 14.254 3.44726 14.225 3.37435 14.225H2.03472C1.83452 14.2254 1.63854 14.1675 1.47075 14.0583C1.30296 13.9491 1.17064 13.7933 1.08998 13.61C1.00525 13.4283 0.977109 13.2252 1.0092 13.0273C1.04129 12.8294 1.13213 12.6456 1.26993 12.5L11.2222 1.32999C11.322 1.22656 11.4415 1.14429 11.5738 1.08811C11.7061 1.03192 11.8483 1.00296 11.992 1.00296C12.1357 1.00296 12.2779 1.03192 12.4101 1.08811C12.5424 1.14429 12.662 1.22656 12.7618 1.32999L22.734 12.5C22.8671 12.6454 22.9542 12.827 22.9845 13.0218C23.0147 13.2166 22.9867 13.416 22.904 13.595C22.8233 13.7783 22.691 13.9341 22.5232 14.0433C22.3554 14.1525 22.1594 14.2104 21.9592 14.21H20.6196C20.5833 14.2093 20.5472 14.216 20.5136 14.2295C20.4799 14.2431 20.4493 14.2634 20.4237 14.289C20.398 14.3147 20.3778 14.3453 20.3642 14.379C20.3506 14.4126 20.344 14.4487 20.3447 14.485V22C20.3356 22.2692 20.2219 22.5243 20.0277 22.7111C19.8336 22.8978 19.5743 23.0014 19.3049 23ZM5.44378 21.5H18.5502C18.6231 21.5 18.693 21.471 18.7446 21.4194C18.7961 21.3679 18.8251 21.2979 18.8251 21.225V13.725C18.8277 13.4514 18.9386 13.1899 19.1334 12.9978C19.3283 12.8057 19.5912 12.6987 19.8648 12.7H20.8645L12.2019 2.96499C12.1766 2.93542 12.1451 2.91168 12.1098 2.89541C12.0744 2.87913 12.0359 2.87071 11.997 2.87071C11.958 2.87071 11.9196 2.87913 11.8842 2.89541C11.8488 2.91168 11.8174 2.93542 11.792 2.96499L3.15941 12.715H4.12914C4.4027 12.7137 4.66566 12.8207 4.86051 13.0128C5.05535 13.2049 5.16621 13.4664 5.16885 13.74V21.24C5.17269 21.3103 5.20334 21.3764 5.25449 21.4248C5.30564 21.4732 5.37339 21.5001 5.44378 21.5Z" fill="#181818"/>
</svg>
