<svg width="24" height="24" viewBox="0 0 24 24" fill="none" xmlns="http://www.w3.org/2000/svg">
<path d="M21.71 9.41718C21.6137 9.3198 21.4987 9.24226 21.3717 9.18907C21.2446 9.13588 21.1081 9.1081 20.97 9.10736H19.5L17.8 5.06504C17.7408 4.90748 17.6416 4.76744 17.5119 4.65827C17.3821 4.5491 17.226 4.47445 17.0586 4.44141C16.8912 4.40838 16.7179 4.41807 16.5553 4.46956C16.3928 4.52105 16.2464 4.61262 16.13 4.73555L14.345 6.501C13.7388 5.53708 12.8332 4.79074 11.7622 4.37247C10.6911 3.9542 9.51162 3.88622 8.39825 4.17859C7.28488 4.47097 6.29681 5.10817 5.58031 5.99586C4.86382 6.88354 4.45697 7.97455 4.42 9.10736H3.03C2.89192 9.1081 2.75537 9.13588 2.62831 9.18907C2.50126 9.24226 2.38625 9.3198 2.29 9.41718C2.194 9.51685 2.11896 9.63419 2.06919 9.76247C2.01943 9.89074 1.99591 10.0274 2 10.1647C2 12.7732 3.05356 15.2748 4.92893 17.1193C6.80429 18.9638 9.34783 20 12 20C14.6522 20 17.1957 18.9638 19.0711 17.1193C20.9464 15.2748 22 12.7732 22 10.1647C22.0041 10.0274 21.9806 9.89074 21.9308 9.76247C21.881 9.63419 21.806 9.51685 21.71 9.41718ZM16.845 6.66328L17.72 8.74837C17.7362 8.78928 17.7421 8.83346 17.7371 8.87709C17.7321 8.92073 17.7163 8.96251 17.6912 8.99882C17.6661 9.03513 17.6324 9.06488 17.593 9.08551C17.5536 9.10613 17.5096 9.11701 17.465 9.1172H13.825L16.395 6.57476C16.4275 6.54414 16.4671 6.5217 16.5104 6.50934C16.5536 6.49697 16.5993 6.49505 16.6434 6.50374C16.6876 6.51243 16.729 6.53147 16.7641 6.55924C16.7992 6.58702 16.8269 6.6227 16.845 6.66328ZM9.785 5.48304C10.5028 5.48642 11.2057 5.68534 11.8156 6.05774C12.4255 6.43014 12.9185 6.96146 13.24 7.59272L11.7 9.1172H5.92C5.96864 8.13992 6.39661 7.21824 7.11569 6.54211C7.83478 5.86597 8.79018 5.48691 9.785 5.48304ZM12 18.269C9.91715 18.2752 7.905 17.5264 6.34804 16.1656C4.79109 14.8049 3.79852 12.9276 3.56 10.8925C3.55576 10.8546 3.55974 10.8162 3.57165 10.7799C3.58356 10.7436 3.60314 10.7102 3.62912 10.6818C3.65509 10.6535 3.68686 10.6309 3.72234 10.6155C3.75782 10.6001 3.79621 10.5923 3.835 10.5925H20.165C20.2038 10.5923 20.2422 10.6001 20.2777 10.6155C20.3131 10.6309 20.3449 10.6535 20.3709 10.6818C20.3968 10.7102 20.4164 10.7436 20.4283 10.7799C20.4403 10.8162 20.4442 10.8546 20.44 10.8925C20.2015 12.9276 19.2089 14.8049 17.6519 16.1656C16.095 17.5264 14.0828 18.2752 12 18.269Z" fill="#181818"/>
</svg>
