<svg width="24" height="24" viewBox="0 0 24 24" fill="none" xmlns="http://www.w3.org/2000/svg">
<path d="M21.9618 9.23001L20.2898 4.32501C20.2377 4.17704 20.1525 4.04292 20.0405 3.93287C19.9286 3.82282 19.793 3.73975 19.6441 3.69001L14.6382 2.05001C14.4581 1.99085 14.2652 1.98241 14.0806 2.02564C13.896 2.06886 13.7269 2.16206 13.592 2.29501L2.29363 13.395C2.20055 13.4879 2.1267 13.5982 2.07632 13.7196C2.02593 13.841 2 13.9711 2 14.1025C2 14.2339 2.02593 14.3641 2.07632 14.4855C2.1267 14.6069 2.20055 14.7171 2.29363 14.81L8.97151 21.355C9.16355 21.5443 9.42253 21.6505 9.69235 21.6505C9.96218 21.6505 10.2212 21.5443 10.4132 21.355L11.6897 20.105V20.855C11.6876 20.9871 11.7118 21.1183 11.7607 21.241C11.8097 21.3638 11.8826 21.4756 11.975 21.57C12.0674 21.6654 12.1777 21.7415 12.2998 21.7939C12.4218 21.8462 12.5531 21.8738 12.6859 21.875L18.9633 22C19.2288 22 19.4835 21.8947 19.6712 21.7071C19.859 21.5196 19.9645 21.2652 19.9645 21L20.1497 11.845C20.15 11.8104 20.1573 11.7762 20.1711 11.7444C20.1848 11.7127 20.2048 11.684 20.2298 11.66L21.6815 10.235C21.8163 10.1095 21.9138 9.94925 21.9633 9.77192C22.0127 9.59459 22.0122 9.40707 21.9618 9.23001ZM18.2474 20.5L13.4518 20.405C13.3801 20.405 13.3113 20.3766 13.2606 20.3259C13.2099 20.2753 13.1815 20.2066 13.1815 20.135L13.2115 18.695C13.2119 18.6604 13.2191 18.6262 13.2329 18.5944C13.2466 18.5627 13.2666 18.534 13.2916 18.51L18.1874 13.705C18.2261 13.668 18.2748 13.6431 18.3275 13.6334C18.3803 13.6236 18.4347 13.6295 18.4841 13.6502C18.5335 13.6709 18.5758 13.7056 18.6058 13.7499C18.6358 13.7943 18.6522 13.8465 18.6529 13.9L18.5128 20.255C18.5077 20.3218 18.4775 20.3841 18.4283 20.4296C18.3791 20.475 18.3145 20.5002 18.2474 20.5ZM9.50213 19.8L3.8755 14.3C3.82536 14.2495 3.79724 14.1812 3.79724 14.11C3.79724 14.0389 3.82536 13.9706 3.8755 13.92L14.3228 3.65001C14.3599 3.61578 14.4052 3.59178 14.4543 3.58038C14.5035 3.56898 14.5548 3.57058 14.6031 3.58501L18.8181 4.96501C18.8581 4.97757 18.8944 4.99959 18.9241 5.02918C18.9537 5.05878 18.9757 5.09509 18.9883 5.13501L20.4 9.26501C20.4175 9.31215 20.4206 9.36341 20.4091 9.41234C20.3975 9.46127 20.3717 9.50569 20.3349 9.54001L9.88759 19.8C9.83612 19.8504 9.76692 19.8786 9.69486 19.8786C9.62279 19.8786 9.5536 19.8504 9.50213 19.8Z" fill="#181818"/>
<path d="M15.1388 6.43001C14.5133 6.4267 13.9121 6.67124 13.4668 7.11001C13.2482 7.32372 13.0746 7.57886 12.956 7.86048C12.8375 8.14209 12.7764 8.44452 12.7764 8.75001C12.7764 9.05551 12.8375 9.35793 12.956 9.63955C13.0746 9.92116 13.2482 10.1763 13.4668 10.39C13.9127 10.8279 14.5135 11.0722 15.1388 11.07C15.7642 11.0733 16.3655 10.8288 16.8108 10.39C17.0301 10.1762 17.2044 9.92078 17.3234 9.6387C17.4424 9.35662 17.5037 9.05361 17.5037 8.74751C17.5037 8.44141 17.4424 8.13841 17.3234 7.85633C17.2044 7.57425 17.0301 7.3188 16.8108 7.10501C16.3644 6.66854 15.7634 6.42592 15.1388 6.43001ZM15.7545 9.35501C15.5885 9.5148 15.3669 9.60408 15.1363 9.60408C14.9057 9.60408 14.6841 9.5148 14.518 9.35501C14.4378 9.27594 14.3741 9.18174 14.3307 9.07789C14.2872 8.97403 14.2648 8.86258 14.2648 8.75001C14.2648 8.63744 14.2872 8.526 14.3307 8.42214C14.3741 8.31828 14.4378 8.22408 14.518 8.14501C14.683 7.98503 14.9038 7.89539 15.1338 7.89501C15.3637 7.89539 15.5845 7.98503 15.7495 8.14501C15.8294 8.22409 15.893 8.31814 15.9365 8.42177C15.98 8.52541 16.0027 8.63659 16.0031 8.74898C16.0036 8.86136 15.9819 8.97273 15.9392 9.07672C15.8966 9.18071 15.8338 9.27527 15.7545 9.35501Z" fill="#181818"/>
</svg>
