<svg width="24" height="24" viewBox="0 0 24 24" fill="none" xmlns="http://www.w3.org/2000/svg">
<path d="M21.075 20L15.38 14.32C16.5311 12.8974 17.0925 11.0873 16.9484 9.263C16.8043 7.43868 15.9657 5.73919 14.6055 4.51494C13.2454 3.29068 11.4673 2.635 9.6379 2.68307C7.80853 2.73115 6.06734 3.47932 4.77333 4.77333C3.47932 6.06734 2.73115 7.80853 2.68307 9.6379C2.635 11.4673 3.29068 13.2454 4.51494 14.6055C5.73919 15.9657 7.43868 16.8043 9.263 16.9484C11.0873 17.0925 12.8974 16.5311 14.32 15.38L20 21.075C20.1406 21.2155 20.3313 21.2943 20.53 21.2943C20.7288 21.2943 20.9194 21.2155 21.06 21.075C21.1334 21.0065 21.1922 20.9238 21.2329 20.832C21.2736 20.7402 21.2953 20.6411 21.2967 20.5407C21.2981 20.4403 21.2792 20.3406 21.2411 20.2477C21.203 20.1548 21.1465 20.0705 21.075 20ZM4.20501 9.83501C4.20501 8.7203 4.53562 7.63063 5.15502 6.70385C5.77443 5.77707 6.65479 5.05482 7.68474 4.62847C8.7147 4.20212 9.84796 4.09082 10.9412 4.30865C12.0344 4.52648 13.0385 5.06366 13.8263 5.85223C14.6142 6.6408 15.1505 7.64533 15.3673 8.73874C15.5842 9.83215 15.4719 10.9653 15.0446 11.9949C14.6174 13.0245 13.8943 13.9042 12.967 14.5228C12.0397 15.1414 10.9497 15.471 9.83501 15.47C8.34138 15.4687 6.90938 14.8744 5.85369 13.8178C4.79801 12.7612 4.20501 11.3286 4.20501 9.83501Z" fill="#141414"/>
</svg>
