<svg width="24" height="24" viewBox="0 0 24 24" fill="none" xmlns="http://www.w3.org/2000/svg">
<path d="M12 15.77C11.2544 15.77 10.5255 15.5489 9.9055 15.1346C9.28552 14.7204 8.80231 14.1316 8.51697 13.4427C8.23163 12.7538 8.15697 11.9958 8.30244 11.2645C8.4479 10.5332 8.80696 9.86146 9.3342 9.33421C9.86145 8.80697 10.5332 8.44791 11.2645 8.30245C11.9958 8.15698 12.7538 8.23164 13.4427 8.51698C14.1316 8.80232 14.7204 9.28553 15.1346 9.90551C15.5489 10.5255 15.77 11.2544 15.77 12C15.77 12.9999 15.3728 13.9588 14.6658 14.6658C13.9588 15.3728 12.9999 15.77 12 15.77ZM12 9.69501C11.3911 9.70278 10.8093 9.94812 10.3787 10.3787C9.94811 10.8093 9.70277 11.3911 9.695 12C9.695 12.4559 9.83018 12.9015 10.0835 13.2806C10.3367 13.6596 10.6967 13.9551 11.1179 14.1295C11.5391 14.304 12.0026 14.3497 12.4497 14.2607C12.8968 14.1718 13.3075 13.9522 13.6299 13.6299C13.9522 13.3075 14.1718 12.8968 14.2607 12.4497C14.3496 12.0026 14.304 11.5391 14.1295 11.1179C13.9551 10.6967 13.6596 10.3367 13.2806 10.0835C12.9015 9.83019 12.4559 9.69501 12 9.69501Z" fill="#181818"/>
<path d="M13.03 22H10.97C10.746 21.9996 10.5286 21.9239 10.3527 21.7852C10.1769 21.6465 10.0526 21.4527 9.99999 21.235L9.52499 19.27C9.51354 19.2286 9.4927 19.1903 9.46408 19.1582C9.43547 19.1262 9.39985 19.1011 9.35999 19.085C9.19499 19.025 9.02999 18.955 8.85999 18.88C8.82129 18.8603 8.77845 18.85 8.73499 18.85C8.69154 18.85 8.6487 18.8603 8.60999 18.88L6.88499 19.93C6.69349 20.0475 6.46799 20.0971 6.24484 20.0708C6.0217 20.0445 5.81391 19.9438 5.65499 19.785L4.19999 18.34C4.04391 18.1827 3.94449 17.9781 3.91734 17.7581C3.89019 17.5382 3.93685 17.3155 4.04999 17.125L5.10999 15.39C5.13102 15.3526 5.14206 15.3104 5.14206 15.2675C5.14206 15.2246 5.13102 15.1824 5.10999 15.145C5.03499 14.98 4.96499 14.815 4.90499 14.645C4.88784 14.6098 4.86335 14.5786 4.83317 14.5536C4.80299 14.5286 4.76781 14.5103 4.72999 14.5L2.76499 14C2.54219 13.9462 2.34462 13.8176 2.20536 13.6355C2.0661 13.4535 1.9936 13.2291 1.99999 13V10.97C2.00017 10.7467 2.07509 10.5298 2.21283 10.354C2.35057 10.1782 2.54319 10.0536 2.75999 10L4.75999 9.5C4.8016 9.49019 4.83999 9.46986 4.87151 9.44098C4.90302 9.41209 4.9266 9.3756 4.93999 9.335C5.00499 9.17 5.07499 9.01 5.14999 8.835C5.171 8.79669 5.18201 8.7537 5.18201 8.71C5.18201 8.66631 5.171 8.62332 5.14999 8.585L4.05499 6.885C3.94054 6.69711 3.89124 6.47671 3.91474 6.25795C3.93824 6.0392 4.03323 5.8343 4.18499 5.675L5.68499 4.2C5.84262 4.04275 6.04823 3.9426 6.26923 3.91543C6.49022 3.88826 6.71396 3.93562 6.90499 4.05L8.64999 5.115C8.688 5.13695 8.73111 5.1485 8.77499 5.1485C8.81888 5.1485 8.86199 5.13695 8.89999 5.115C9.05999 5.04 9.21999 4.975 9.39999 4.915C9.45357 4.87298 9.48929 4.81225 9.49999 4.745L9.99999 2.745C10.0564 2.53099 10.1823 2.34174 10.3578 2.20692C10.5334 2.0721 10.7487 1.99933 10.97 2H13.035C13.2575 2.00129 13.4732 2.07673 13.6479 2.21438C13.8227 2.35203 13.9466 2.54403 14 2.76L14.5 4.76C14.5107 4.80122 14.5313 4.83919 14.56 4.87058C14.5888 4.90196 14.6249 4.9258 14.665 4.94C14.83 5.005 15 5.075 15.165 5.15C15.2037 5.16976 15.2465 5.18006 15.29 5.18006C15.3334 5.18006 15.3763 5.16976 15.415 5.15L17.14 4.095C17.3341 3.9768 17.5627 3.92824 17.7881 3.95732C18.0135 3.98641 18.2222 4.0914 18.38 4.255L19.825 5.7C19.9838 5.85893 20.0845 6.06671 20.1108 6.28986C20.1371 6.513 20.0875 6.7385 19.97 6.93L18.92 8.65C18.9003 8.68783 18.89 8.72985 18.89 8.7725C18.89 8.81516 18.9003 8.85718 18.92 8.89501C18.995 9.06501 19.065 9.23001 19.13 9.39501C19.1442 9.43597 19.1687 9.47262 19.2011 9.5015C19.2335 9.53037 19.2727 9.55051 19.315 9.56001L21.28 10.035C21.4837 10.0943 21.6632 10.2169 21.7926 10.385C21.922 10.5531 21.9947 10.7579 22 10.97V13.03C22.0061 13.2598 21.9329 13.4847 21.7927 13.6668C21.6524 13.849 21.4537 13.9772 21.23 14.03L19.275 14.5C19.2336 14.5115 19.1953 14.5323 19.1632 14.5609C19.1312 14.5895 19.1061 14.6251 19.09 14.665C19.025 14.835 18.955 15.005 18.88 15.165C18.859 15.2033 18.848 15.2463 18.848 15.29C18.848 15.3337 18.859 15.3767 18.88 15.415L19.93 17.135C20.0475 17.3265 20.0971 17.552 20.0708 17.7752C20.0445 17.9983 19.9438 18.2061 19.785 18.365L18.34 19.8C18.1833 19.9569 17.9789 20.0572 17.759 20.0853C17.5391 20.1133 17.316 20.0675 17.125 19.955L15.39 18.89C15.3517 18.869 15.3087 18.858 15.265 18.858C15.2213 18.858 15.1783 18.869 15.14 18.89C14.98 18.965 14.815 19.03 14.64 19.095C14.5995 19.1101 14.5633 19.1348 14.5345 19.167C14.5058 19.1993 14.4853 19.2381 14.475 19.28L14 21.235C13.9474 21.4527 13.8231 21.6465 13.6472 21.7852C13.4714 21.9239 13.254 21.9996 13.03 22ZM11.55 20.535H12.455C12.5152 20.5354 12.5737 20.5154 12.6209 20.4781C12.6682 20.4408 12.7014 20.3886 12.715 20.33L13.14 18.54V18.005L13.64 17.86C14.0874 17.7337 14.5186 17.5559 14.925 17.33L15.38 17.075L15.815 17.46L17.345 18.395C17.396 18.4267 17.4562 18.4405 17.516 18.4342C17.5758 18.4278 17.6317 18.4017 17.675 18.36L18.315 17.715C18.3583 17.6728 18.3859 17.6171 18.3932 17.5571C18.4004 17.497 18.387 17.4363 18.355 17.385L17.38 15.81L17.03 15.42L17.29 14.96C17.5195 14.5548 17.6992 14.1234 17.825 13.675L17.965 13.175L18.55 13.15L20.29 12.73C20.3486 12.7164 20.4008 12.6832 20.4381 12.636C20.4754 12.5887 20.4954 12.5302 20.495 12.47V11.55C20.4954 11.4898 20.4754 11.4313 20.4381 11.384C20.4008 11.3368 20.3486 11.3036 20.29 11.29L18.5 10.865H17.965L17.825 10.365C17.7018 9.91257 17.522 9.47748 17.29 9.07L17.04 8.615L17.42 8.19L18.355 6.65C18.3867 6.59895 18.4005 6.53877 18.3942 6.47899C18.3878 6.41922 18.3617 6.36327 18.32 6.32L17.675 5.68C17.6328 5.63669 17.5771 5.6091 17.517 5.60183C17.457 5.59455 17.3963 5.60802 17.345 5.64L15.77 6.615L15.38 6.965L14.925 6.71C14.5201 6.4798 14.0886 6.30013 13.64 6.175L13.14 6.035V5.45L12.715 3.705C12.7014 3.64639 12.6682 3.59416 12.6209 3.5569C12.5737 3.51964 12.5152 3.49958 12.455 3.5H11.55C11.4898 3.49958 11.4313 3.51964 11.384 3.5569C11.3368 3.59416 11.3036 3.64639 11.29 3.705L10.865 5.505L10.84 6L10.34 6.15C9.89214 6.27947 9.46089 6.46069 9.05499 6.69L8.59499 6.945L8.15499 6.545L6.61499 5.6C6.56293 5.57055 6.5028 5.55854 6.44342 5.56573C6.38403 5.57293 6.32851 5.59896 6.28499 5.64L5.64499 6.285C5.60168 6.32719 5.57409 6.38293 5.56682 6.44295C5.55954 6.50298 5.57301 6.56369 5.60499 6.615L6.60499 8.2L6.95499 8.59L6.69999 9.045C6.46768 9.45243 6.28313 9.88529 6.14999 10.335L6.00499 10.835H5.42999L3.68499 11.26C3.62638 11.2736 3.57415 11.3068 3.53689 11.354C3.49963 11.4013 3.47957 11.4598 3.47999 11.52V12.425C3.47957 12.4852 3.49963 12.5437 3.53689 12.591C3.57415 12.6382 3.62638 12.6714 3.68499 12.685L5.47499 13.11H6.00499L6.14999 13.61C6.2738 14.0606 6.45353 14.494 6.68499 14.9L6.94499 15.36L6.55499 15.795L5.61999 17.325C5.58801 17.3763 5.57454 17.437 5.58182 17.4971C5.58909 17.5571 5.61668 17.6128 5.65999 17.655L6.29999 18.3C6.3431 18.3418 6.39868 18.3683 6.45827 18.3755C6.51785 18.3827 6.57816 18.3703 6.62999 18.34L8.20999 17.365L8.59499 17.02L9.04999 17.27C9.45694 17.4983 9.89011 17.6762 10.34 17.8L10.84 17.945V18.535L11.265 20.275C11.2648 20.3114 11.2723 20.3473 11.2869 20.3806C11.3015 20.4139 11.3229 20.4438 11.3498 20.4683C11.3766 20.4928 11.4083 20.5114 11.4428 20.5229C11.4773 20.5344 11.5138 20.5385 11.55 20.535Z" fill="#181818"/>
</svg>
